<svg width="1020" height="1020" version="1.1" xmlns="http://www.w3.org/2000/svg" desc="Created with imagetracer.js version 1.2.6" ><path fill="rgb(61,61,61)" stroke="rgb(61,61,61)" stroke-width="1" opacity="1" d="M 0 0 L 1020 0 L 1020 1020 L 0 1020 L 0 0 Z M 718 243 L 717 244 L 703 244 L 702 245 L 693 245 L 692 246 L 674 248 L 646 255 L 624 263 Q 577 283 544 316 Q 513 346 494 388 L 483 416 L 477 438 L 474 452 L 472 472 L 471 473 L 471 484 L 470 485 L 470 532 L 471 533 L 472 551 L 477 579 L 486 609 Q 506 660 541 697 Q 575 731 624 752 L 657 763 L 670 765 L 675 767 L 695 769 L 696 770 L 726 771 L 727 772 L 769 770 L 798 765 L 820 759 L 839 752 L 871 736 L 906 710 Q 928 690 945 665 L 954 650 L 965 627 L 977 592 L 976 590 L 839 590 Q 830 606 819 620 Q 805 635 786 645 L 765 653 L 743 657 L 718 657 L 717 656 L 703 655 L 687 651 Q 661 642 644 626 Q 620 605 608 572 L 603 555 L 600 538 L 599 510 L 598 509 L 599 507 L 600 478 L 606 451 Q 615 420 634 400 Q 650 380 675 369 L 701 361 L 714 360 L 715 359 L 745 359 L 766 363 Q 789 370 807 384 Q 827 400 837 425 L 977 425 Q 960 361 920 320 Q 885 282 834 261 L 802 251 L 776 246 L 760 245 L 759 244 L 743 244 L 742 243 L 718 243 Z M 71 251 L 71 768 L 122 768 L 122 768 L 122 554 L 124 552 L 218 552 L 344 767 L 346 768 L 407 768 L 275 548 Q 323 540 354 514 Q 376 495 389 467 L 398 440 L 401 423 L 401 413 L 402 412 L 401 381 L 396 355 Q 387 324 368 304 Q 353 287 334 275 L 305 262 L 277 255 L 266 254 L 265 253 L 255 253 L 254 252 L 237 252 L 236 251 L 71 251 Z " /><path fill="rgb(61,61,61)" stroke="rgb(61,61,61)" stroke-width="1" opacity="1" d="M 122 295 L 237.5 295 L 238.5 296 L 250.5 296 L 251.5 297 L 265.5 298 Q 285.7 301.7 301.5 310 L 321 324.5 Q 337 340 344 364.5 L 348 385.5 L 348 416.5 L 345 433.5 L 340 448.5 Q 331.3 468.3 316.5 482 Q 305 492.5 289.5 499 L 279.5 503 L 257.5 508 L 238.5 509 L 237.5 510 L 122 510 L 122 295 Z " /><path fill="rgb(211,211,211)" stroke="rgb(211,211,211)" stroke-width="1" opacity="1" d="M 717.5 243 L 742 243.5 L 717.5 244 L 717.5 243 Z " /><path fill="rgb(211,211,211)" stroke="rgb(211,211,211)" stroke-width="1" opacity="1" d="M 702.5 244 L 708 244.5 L 702.5 245 L 702.5 244 Z " /><path fill="rgb(211,211,211)" stroke="rgb(211,211,211)" stroke-width="1" opacity="1" d="M 754.5 244 L 759 244.5 L 754.5 245 L 754.5 244 Z " /><path fill="rgb(211,211,211)" stroke="rgb(211,211,211)" stroke-width="1" opacity="1" d="M 692.5 245 L 695 245.5 L 692.5 246 L 692.5 245 Z " /><path fill="rgb(211,211,211)" stroke="rgb(211,211,211)" stroke-width="1" opacity="1" d="M 764.5 245 L 769 245.5 L 764.5 246 L 764.5 245 Z " /><path fill="rgb(211,211,211)" stroke="rgb(211,211,211)" stroke-width="1" opacity="1" d="M 685.5 246 L 688 246.5 L 685.5 247 L 685.5 246 Z " /><path fill="rgb(211,211,211)" stroke="rgb(211,211,211)" stroke-width="1" opacity="1" d="M 773.5 246 L 776 246.5 L 773.5 247 L 773.5 246 Z " /><path fill="rgb(211,211,211)" stroke="rgb(211,211,211)" stroke-width="1" opacity="1" d="M 679.5 247 L 682 247.5 L 679.5 248 L 679.5 247 Z " /><path fill="rgb(211,211,211)" stroke="rgb(211,211,211)" stroke-width="1" opacity="1" d="M 779.5 247 L 782 247.5 L 779.5 248 L 779.5 247 Z " /><path fill="rgb(211,211,211)" stroke="rgb(211,211,211)" stroke-width="1" opacity="1" d="M 673.5 248 L 676 248.5 L 673.5 249 L 673.5 248 Z " /><path fill="rgb(211,211,211)" stroke="rgb(211,211,211)" stroke-width="1" opacity="1" d="M 790.5 249 L 793 249.5 L 790.5 250 L 790.5 249 Z " /><path fill="rgb(211,211,211)" stroke="rgb(211,211,211)" stroke-width="1" opacity="1" d="M 71.5 251 L 236 251.5 L 71.5 252 L 71.5 251 Z " /><path fill="rgb(211,211,211)" stroke="rgb(211,211,211)" stroke-width="1" opacity="1" d="M 659.5 251 L 662 251.5 L 659.5 252 L 659.5 251 Z " /><path fill="rgb(211,211,211)" stroke="rgb(211,211,211)" stroke-width="1" opacity="1" d="M 248.5 252 L 254 252.5 L 248.5 253 L 248.5 252 Z " /><path fill="rgb(211,211,211)" stroke="rgb(211,211,211)" stroke-width="1" opacity="1" d="M 259.5 253 L 265 253.5 L 259.5 254 L 259.5 253 Z " /><path fill="rgb(211,211,211)" stroke="rgb(211,211,211)" stroke-width="1" opacity="1" d="M 268.5 254 L 271 254.5 L 268.5 255 L 268.5 254 Z " /><path fill="rgb(211,211,211)" stroke="rgb(211,211,211)" stroke-width="1" opacity="1" d="M 274.5 255 L 277 255.5 L 274.5 256 L 274.5 255 Z " /><path fill="rgb(211,211,211)" stroke="rgb(211,211,211)" stroke-width="1" opacity="1" d="M 279.5 256 L 282 256.5 L 279.5 257 L 279.5 256 Z " /><path fill="rgb(211,211,211)" stroke="rgb(211,211,211)" stroke-width="1" opacity="1" d="M 857.5 272 L 858.5 274 L 857.5 272 Z " /><path fill="rgb(211,211,211)" stroke="rgb(211,211,211)" stroke-width="1" opacity="1" d="M 596.5 276 L 595.5 278 L 596.5 276 Z " /><path fill="rgb(211,211,211)" stroke="rgb(211,211,211)" stroke-width="1" opacity="1" d="M 864.5 276 L 865.5 278 L 864.5 276 Z " /><path fill="rgb(211,211,211)" stroke="rgb(211,211,211)" stroke-width="1" opacity="1" d="M 591.5 279 L 590.5 281 L 591.5 279 Z " /><path fill="rgb(211,211,211)" stroke="rgb(211,211,211)" stroke-width="1" opacity="1" d="M 871.5 280 L 872.5 282 L 871.5 280 Z " /><path fill="rgb(211,211,211)" stroke="rgb(211,211,211)" stroke-width="1" opacity="1" d="M 344.5 282 L 346.5 285 L 344.5 282 Z " /><path fill="rgb(211,211,211)" stroke="rgb(211,211,211)" stroke-width="1" opacity="1" d="M 586.5 282 L 585.5 284 L 586.5 282 Z " /><path fill="rgb(211,211,211)" stroke="rgb(211,211,211)" stroke-width="1" opacity="1" d="M 874.5 282 L 875.5 284 L 874.5 282 Z " /><path fill="rgb(211,211,211)" stroke="rgb(211,211,211)" stroke-width="1" opacity="1" d="M 877.5 284 L 878.5 286 L 877.5 284 Z " /><path fill="rgb(211,211,211)" stroke="rgb(211,211,211)" stroke-width="1" opacity="1" d="M 349.5 286 L 352.5 290 L 349.5 286 Z " /><path fill="rgb(211,211,211)" stroke="rgb(211,211,211)" stroke-width="1" opacity="1" d="M 880.5 286 L 881.5 288 L 880.5 286 Z " /><path fill="rgb(211,211,211)" stroke="rgb(211,211,211)" stroke-width="1" opacity="1" d="M 577.5 288 L 576.5 290 L 577.5 288 Z " /><path fill="rgb(211,211,211)" stroke="rgb(211,211,211)" stroke-width="1" opacity="1" d="M 574.5 290 L 573.5 292 L 574.5 290 Z " /><path fill="rgb(211,211,211)" stroke="rgb(211,211,211)" stroke-width="1" opacity="1" d="M 355.5 291 L 367.5 304 L 355.5 291 Z " /><path fill="rgb(211,211,211)" stroke="rgb(211,211,211)" stroke-width="1" opacity="1" d="M 887.5 291 L 888.5 293 L 887.5 291 Z " /><path fill="rgb(211,211,211)" stroke="rgb(211,211,211)" stroke-width="1" opacity="1" d="M 570.5 293 L 569.5 295 L 570.5 293 Z " /><path fill="rgb(211,211,211)" stroke="rgb(211,211,211)" stroke-width="1" opacity="1" d="M 891.5 294 L 893.5 297 L 891.5 294 Z " /><path fill="rgb(211,211,211)" stroke="rgb(211,211,211)" stroke-width="1" opacity="1" d="M 238.5 295 L 246 295.5 L 238.5 296 L 238.5 295 Z " /><path fill="rgb(211,211,211)" stroke="rgb(211,211,211)" stroke-width="1" opacity="1" d="M 567.5 295 L 565.5 298 L 567.5 295 Z " /><path fill="rgb(211,211,211)" stroke="rgb(211,211,211)" stroke-width="1" opacity="1" d="M 251.5 296 L 256 296.5 L 251.5 297 L 251.5 296 Z " /><path fill="rgb(211,211,211)" stroke="rgb(211,211,211)" stroke-width="1" opacity="1" d="M 259.5 297 L 262 297.5 L 259.5 298 L 259.5 297 Z " /><path fill="rgb(211,211,211)" stroke="rgb(211,211,211)" stroke-width="1" opacity="1" d="M 266.5 298 L 269 298.5 L 266.5 299 L 266.5 298 Z " /><path fill="rgb(211,211,211)" stroke="rgb(211,211,211)" stroke-width="1" opacity="1" d="M 896.5 298 L 898.5 301 L 896.5 298 Z " /><path fill="rgb(211,211,211)" stroke="rgb(211,211,211)" stroke-width="1" opacity="1" d="M 561.5 300 L 559.5 303 L 561.5 300 Z " /><path fill="rgb(211,211,211)" stroke="rgb(211,211,211)" stroke-width="1" opacity="1" d="M 901.5 302 L 903.5 305 L 901.5 302 Z " /><path fill="rgb(211,211,211)" stroke="rgb(211,211,211)" stroke-width="1" opacity="1" d="M 556.5 304 L 552.5 309 L 556.5 304 Z " /><path fill="rgb(211,211,211)" stroke="rgb(211,211,211)" stroke-width="1" opacity="1" d="M 369.5 306 L 371.5 309 L 369.5 306 Z " /><path fill="rgb(211,211,211)" stroke="rgb(211,211,211)" stroke-width="1" opacity="1" d="M 302.5 310 L 303.5 312 L 302.5 310 Z " /><path fill="rgb(211,211,211)" stroke="rgb(211,211,211)" stroke-width="1" opacity="1" d="M 373.5 311 L 374.5 313 L 373.5 311 Z " /><path fill="rgb(211,211,211)" stroke="rgb(211,211,211)" stroke-width="1" opacity="1" d="M 914.5 314 L 919.5 320 L 914.5 314 Z " /><path fill="rgb(211,211,211)" stroke="rgb(211,211,211)" stroke-width="1" opacity="1" d="M 376.5 315 L 377.5 317 L 376.5 315 Z " /><path fill="rgb(211,211,211)" stroke="rgb(211,211,211)" stroke-width="1" opacity="1" d="M 311.5 316 L 312.5 318 L 311.5 316 Z " /><path fill="rgb(211,211,211)" stroke="rgb(211,211,211)" stroke-width="1" opacity="1" d="M 543.5 316 L 542.5 318 L 543.5 316 Z " /><path fill="rgb(211,211,211)" stroke="rgb(211,211,211)" stroke-width="1" opacity="1" d="M 316.5 320 L 317.5 322 L 316.5 320 Z " /><path fill="rgb(211,211,211)" stroke="rgb(211,211,211)" stroke-width="1" opacity="1" d="M 381.5 323 L 382.5 325 L 381.5 323 Z " /><path fill="rgb(211,211,211)" stroke="rgb(211,211,211)" stroke-width="1" opacity="1" d="M 536.5 324 L 531.5 330 L 536.5 324 Z " /><path fill="rgb(211,211,211)" stroke="rgb(211,211,211)" stroke-width="1" opacity="1" d="M 923.5 324 L 926.5 328 L 923.5 324 Z " /><path fill="rgb(211,211,211)" stroke="rgb(211,211,211)" stroke-width="1" opacity="1" d="M 321.5 325 L 326.5 331 L 321.5 325 Z " /><path fill="rgb(211,211,211)" stroke="rgb(211,211,211)" stroke-width="1" opacity="1" d="M 529.5 332 L 527.5 335 L 529.5 332 Z " /><path fill="rgb(211,211,211)" stroke="rgb(211,211,211)" stroke-width="1" opacity="1" d="M 930.5 332 L 932.5 335 L 930.5 332 Z " /><path fill="rgb(211,211,211)" stroke="rgb(211,211,211)" stroke-width="1" opacity="1" d="M 328.5 333 L 329.5 335 L 328.5 333 Z " /><path fill="rgb(211,211,211)" stroke="rgb(211,211,211)" stroke-width="1" opacity="1" d="M 331.5 337 L 332.5 339 L 331.5 337 Z " /><path fill="rgb(211,211,211)" stroke="rgb(211,211,211)" stroke-width="1" opacity="1" d="M 525.5 337 L 523.5 340 L 525.5 337 Z " /><path fill="rgb(211,211,211)" stroke="rgb(211,211,211)" stroke-width="1" opacity="1" d="M 934.5 337 L 935.5 339 L 934.5 337 Z " /><path fill="rgb(211,211,211)" stroke="rgb(211,211,211)" stroke-width="1" opacity="1" d="M 936.5 340 L 937.5 342 L 936.5 340 Z " /><path fill="rgb(211,211,211)" stroke="rgb(211,211,211)" stroke-width="1" opacity="1" d="M 334.5 342 L 335.5 344 L 334.5 342 Z " /><path fill="rgb(211,211,211)" stroke="rgb(211,211,211)" stroke-width="1" opacity="1" d="M 521.5 342 L 520.5 344 L 521.5 342 Z " /><path fill="rgb(211,211,211)" stroke="rgb(211,211,211)" stroke-width="1" opacity="1" d="M 939.5 344 L 940.5 346 L 939.5 344 Z " /><path fill="rgb(211,211,211)" stroke="rgb(211,211,211)" stroke-width="1" opacity="1" d="M 942.5 348 L 943.5 350 L 942.5 348 Z " /><path fill="rgb(211,211,211)" stroke="rgb(211,211,211)" stroke-width="1" opacity="1" d="M 516.5 349 L 515.5 351 L 516.5 349 Z " /><path fill="rgb(211,211,211)" stroke="rgb(211,211,211)" stroke-width="1" opacity="1" d="M 514.5 352 L 513.5 354 L 514.5 352 Z " /><path fill="rgb(211,211,211)" stroke="rgb(211,211,211)" stroke-width="1" opacity="1" d="M 945.5 353 L 946.5 355 L 945.5 353 Z " /><path fill="rgb(211,211,211)" stroke="rgb(211,211,211)" stroke-width="1" opacity="1" d="M 512.5 355 L 511.5 357 L 512.5 355 Z " /><path fill="rgb(211,211,211)" stroke="rgb(211,211,211)" stroke-width="1" opacity="1" d="M 722.5 358 L 740 358.5 L 722.5 359 L 722.5 358 Z " /><path fill="rgb(211,211,211)" stroke="rgb(211,211,211)" stroke-width="1" opacity="1" d="M 948.5 358 L 949.5 360 L 948.5 358 Z " /><path fill="rgb(211,211,211)" stroke="rgb(211,211,211)" stroke-width="1" opacity="1" d="M 710.5 359 L 714 359.5 L 710.5 360 L 710.5 359 Z " /><path fill="rgb(211,211,211)" stroke="rgb(211,211,211)" stroke-width="1" opacity="1" d="M 745.5 359 L 749 359.5 L 745.5 360 L 745.5 359 Z " /><path fill="rgb(211,211,211)" stroke="rgb(211,211,211)" stroke-width="1" opacity="1" d="M 702.5 360 L 706 360.5 L 702.5 361 L 702.5 360 Z " /><path fill="rgb(211,211,211)" stroke="rgb(211,211,211)" stroke-width="1" opacity="1" d="M 752.5 360 L 755 360.5 L 752.5 361 L 752.5 360 Z " /><path fill="rgb(211,211,211)" stroke="rgb(211,211,211)" stroke-width="1" opacity="1" d="M 951.5 363 L 952.5 365 L 951.5 363 Z " /><path fill="rgb(211,211,211)" stroke="rgb(211,211,211)" stroke-width="1" opacity="1" d="M 673.5 369 L 672.5 371 L 673.5 369 Z " /><path fill="rgb(211,211,211)" stroke="rgb(211,211,211)" stroke-width="1" opacity="1" d="M 399.5 373 L 400 375.5 L 399 375.5 L 399.5 373 Z " /><path fill="rgb(211,211,211)" stroke="rgb(211,211,211)" stroke-width="1" opacity="1" d="M 662.5 375 L 661.5 377 L 662.5 375 Z " /><path fill="rgb(211,211,211)" stroke="rgb(211,211,211)" stroke-width="1" opacity="1" d="M 659.5 377 L 658.5 379 L 659.5 377 Z " /><path fill="rgb(211,211,211)" stroke="rgb(211,211,211)" stroke-width="1" opacity="1" d="M 797.5 377 L 798.5 379 L 797.5 377 Z " /><path fill="rgb(211,211,211)" stroke="rgb(211,211,211)" stroke-width="1" opacity="1" d="M 800.5 379 L 801.5 381 L 800.5 379 Z " /><path fill="rgb(211,211,211)" stroke="rgb(211,211,211)" stroke-width="1" opacity="1" d="M 400.5 380 L 401 383.5 L 400 383.5 L 400.5 380 Z " /><path fill="rgb(211,211,211)" stroke="rgb(211,211,211)" stroke-width="1" opacity="1" d="M 347.5 381 L 348 384.5 L 347 384.5 L 347.5 381 Z " /><path fill="rgb(211,211,211)" stroke="rgb(211,211,211)" stroke-width="1" opacity="1" d="M 653.5 381 L 652.5 383 L 653.5 381 Z " /><path fill="rgb(211,211,211)" stroke="rgb(211,211,211)" stroke-width="1" opacity="1" d="M 804.5 382 L 805.5 384 L 804.5 382 Z " /><path fill="rgb(211,211,211)" stroke="rgb(211,211,211)" stroke-width="1" opacity="1" d="M 648.5 385 L 646.5 388 L 648.5 385 Z " /><path fill="rgb(211,211,211)" stroke="rgb(211,211,211)" stroke-width="1" opacity="1" d="M 809.5 386 L 819.5 397 L 809.5 386 Z " /><path fill="rgb(211,211,211)" stroke="rgb(211,211,211)" stroke-width="1" opacity="1" d="M 643.5 389 L 638.5 395 L 643.5 389 Z " /><path fill="rgb(211,211,211)" stroke="rgb(211,211,211)" stroke-width="1" opacity="1" d="M 348.5 390 L 349 411.5 L 348 411.5 L 348.5 390 Z " /><path fill="rgb(211,211,211)" stroke="rgb(211,211,211)" stroke-width="1" opacity="1" d="M 401.5 392 L 402 411.5 L 401 411.5 L 401.5 392 Z " /><path fill="rgb(211,211,211)" stroke="rgb(211,211,211)" stroke-width="1" opacity="1" d="M 633.5 400 L 631.5 403 L 633.5 400 Z " /><path fill="rgb(211,211,211)" stroke="rgb(211,211,211)" stroke-width="1" opacity="1" d="M 822.5 400 L 824.5 403 L 822.5 400 Z " /><path fill="rgb(211,211,211)" stroke="rgb(211,211,211)" stroke-width="1" opacity="1" d="M 825.5 404 L 826.5 406 L 825.5 404 Z " /><path fill="rgb(211,211,211)" stroke="rgb(211,211,211)" stroke-width="1" opacity="1" d="M 629.5 405 L 627.5 408 L 629.5 405 Z " /><path fill="rgb(211,211,211)" stroke="rgb(211,211,211)" stroke-width="1" opacity="1" d="M 828.5 408 L 829.5 410 L 828.5 408 Z " /><path fill="rgb(211,211,211)" stroke="rgb(211,211,211)" stroke-width="1" opacity="1" d="M 625.5 410 L 624.5 412 L 625.5 410 Z " /><path fill="rgb(211,211,211)" stroke="rgb(211,211,211)" stroke-width="1" opacity="1" d="M 831.5 413 L 832.5 415 L 831.5 413 Z " /><path fill="rgb(211,211,211)" stroke="rgb(211,211,211)" stroke-width="1" opacity="1" d="M 347.5 417 L 348 420.5 L 347 420.5 L 347.5 417 Z " /><path fill="rgb(211,211,211)" stroke="rgb(211,211,211)" stroke-width="1" opacity="1" d="M 400.5 418 L 401 422.5 L 400 422.5 L 400.5 418 Z " /><path fill="rgb(211,211,211)" stroke="rgb(211,211,211)" stroke-width="1" opacity="1" d="M 620.5 418 L 619.5 420 L 620.5 418 Z " /><path fill="rgb(211,211,211)" stroke="rgb(211,211,211)" stroke-width="1" opacity="1" d="M 399.5 427 L 400 429.5 L 399 429.5 L 399.5 427 Z " /><path fill="rgb(211,211,211)" stroke="rgb(211,211,211)" stroke-width="1" opacity="1" d="M 345.5 429 L 346 431.5 L 345 431.5 L 345.5 429 Z " /><path fill="rgb(211,211,211)" stroke="rgb(211,211,211)" stroke-width="1" opacity="1" d="M 475.5 446 L 476 448.5 L 475 448.5 L 475.5 446 Z " /><path fill="rgb(211,211,211)" stroke="rgb(211,211,211)" stroke-width="1" opacity="1" d="M 474.5 451 L 475 453.5 L 474 453.5 L 474.5 451 Z " /><path fill="rgb(211,211,211)" stroke="rgb(211,211,211)" stroke-width="1" opacity="1" d="M 473.5 458 L 474 460.5 L 473 460.5 L 473.5 458 Z " /><path fill="rgb(211,211,211)" stroke="rgb(211,211,211)" stroke-width="1" opacity="1" d="M 334.5 459 L 333.5 461 L 334.5 459 Z " /><path fill="rgb(211,211,211)" stroke="rgb(211,211,211)" stroke-width="1" opacity="1" d="M 602.5 463 L 603 465.5 L 602 465.5 L 602.5 463 Z " /><path fill="rgb(211,211,211)" stroke="rgb(211,211,211)" stroke-width="1" opacity="1" d="M 331.5 464 L 330.5 466 L 331.5 464 Z " /><path fill="rgb(211,211,211)" stroke="rgb(211,211,211)" stroke-width="1" opacity="1" d="M 472.5 465 L 473 467.5 L 472 467.5 L 472.5 465 Z " /><path fill="rgb(211,211,211)" stroke="rgb(211,211,211)" stroke-width="1" opacity="1" d="M 328.5 468 L 327.5 470 L 328.5 468 Z " /><path fill="rgb(211,211,211)" stroke="rgb(211,211,211)" stroke-width="1" opacity="1" d="M 325.5 472 L 321.5 477 L 325.5 472 Z " /><path fill="rgb(211,211,211)" stroke="rgb(211,211,211)" stroke-width="1" opacity="1" d="M 471.5 472 L 472 477.5 L 471 477.5 L 471.5 472 Z " /><path fill="rgb(211,211,211)" stroke="rgb(211,211,211)" stroke-width="1" opacity="1" d="M 600.5 474 L 601 476.5 L 600 476.5 L 600.5 474 Z " /><path fill="rgb(211,211,211)" stroke="rgb(211,211,211)" stroke-width="1" opacity="1" d="M 383.5 476 L 382.5 478 L 383.5 476 Z " /><path fill="rgb(211,211,211)" stroke="rgb(211,211,211)" stroke-width="1" opacity="1" d="M 315.5 482 L 312.5 486 L 315.5 482 Z " /><path fill="rgb(211,211,211)" stroke="rgb(211,211,211)" stroke-width="1" opacity="1" d="M 599.5 482 L 600 486.5 L 599 486.5 L 599.5 482 Z " /><path fill="rgb(211,211,211)" stroke="rgb(211,211,211)" stroke-width="1" opacity="1" d="M 470.5 484 L 471 490.5 L 470 490.5 L 470.5 484 Z " /><path fill="rgb(211,211,211)" stroke="rgb(211,211,211)" stroke-width="1" opacity="1" d="M 309.5 487 L 308.5 489 L 309.5 487 Z " /><path fill="rgb(211,211,211)" stroke="rgb(211,211,211)" stroke-width="1" opacity="1" d="M 376.5 487 L 375.5 489 L 376.5 487 Z " /><path fill="rgb(211,211,211)" stroke="rgb(211,211,211)" stroke-width="1" opacity="1" d="M 306.5 489 L 305.5 491 L 306.5 489 Z " /><path fill="rgb(211,211,211)" stroke="rgb(211,211,211)" stroke-width="1" opacity="1" d="M 374.5 490 L 373.5 492 L 374.5 490 Z " /><path fill="rgb(211,211,211)" stroke="rgb(211,211,211)" stroke-width="1" opacity="1" d="M 303.5 491 L 302.5 493 L 303.5 491 Z " /><path fill="rgb(211,211,211)" stroke="rgb(211,211,211)" stroke-width="1" opacity="1" d="M 598.5 493 L 599 506.5 L 598 506.5 L 598.5 493 Z " /><path fill="rgb(211,211,211)" stroke="rgb(211,211,211)" stroke-width="1" opacity="1" d="M 371.5 494 L 370.5 496 L 371.5 494 Z " /><path fill="rgb(211,211,211)" stroke="rgb(211,211,211)" stroke-width="1" opacity="1" d="M 367.5 499 L 362.5 505 L 367.5 499 Z " /><path fill="rgb(211,211,211)" stroke="rgb(211,211,211)" stroke-width="1" opacity="1" d="M 263.5 506 L 266 506.5 L 263.5 507 L 263.5 506 Z " /><path fill="rgb(211,211,211)" stroke="rgb(211,211,211)" stroke-width="1" opacity="1" d="M 250.5 508 L 254 508.5 L 250.5 509 L 250.5 508 Z " /><path fill="rgb(211,211,211)" stroke="rgb(211,211,211)" stroke-width="1" opacity="1" d="M 358.5 508 L 353.5 514 L 358.5 508 Z " /><path fill="rgb(211,211,211)" stroke="rgb(211,211,211)" stroke-width="1" opacity="1" d="M 238.5 509 L 245 509.5 L 238.5 510 L 238.5 509 Z " /><path fill="rgb(211,211,211)" stroke="rgb(211,211,211)" stroke-width="1" opacity="1" d="M 598.5 509 L 599 523.5 L 598 523.5 L 598.5 509 Z " /><path fill="rgb(211,211,211)" stroke="rgb(211,211,211)" stroke-width="1" opacity="1" d="M 349.5 516 L 348.5 518 L 349.5 516 Z " /><path fill="rgb(211,211,211)" stroke="rgb(211,211,211)" stroke-width="1" opacity="1" d="M 346.5 518 L 344.5 521 L 346.5 518 Z " /><path fill="rgb(211,211,211)" stroke="rgb(211,211,211)" stroke-width="1" opacity="1" d="M 342.5 521 L 341.5 523 L 342.5 521 Z " /><path fill="rgb(211,211,211)" stroke="rgb(211,211,211)" stroke-width="1" opacity="1" d="M 339.5 523 L 338.5 525 L 339.5 523 Z " /><path fill="rgb(211,211,211)" stroke="rgb(211,211,211)" stroke-width="1" opacity="1" d="M 470.5 523 L 471 531.5 L 470 531.5 L 470.5 523 Z " /><path fill="rgb(211,211,211)" stroke="rgb(211,211,211)" stroke-width="1" opacity="1" d="M 334.5 526 L 333.5 528 L 334.5 526 Z " /><path fill="rgb(211,211,211)" stroke="rgb(211,211,211)" stroke-width="1" opacity="1" d="M 329.5 529 L 328.5 531 L 327 530.5 L 329.5 529 Z " /><path fill="rgb(211,211,211)" stroke="rgb(211,211,211)" stroke-width="1" opacity="1" d="M 599.5 529 L 600 532.5 L 599 532.5 L 599.5 529 Z " /><path fill="rgb(211,211,211)" stroke="rgb(211,211,211)" stroke-width="1" opacity="1" d="M 471.5 538 L 472 542.5 L 471 542.5 L 471.5 538 Z " /><path fill="rgb(211,211,211)" stroke="rgb(211,211,211)" stroke-width="1" opacity="1" d="M 600.5 538 L 601 541.5 L 600 541.5 L 600.5 538 Z " /><path fill="rgb(211,211,211)" stroke="rgb(211,211,211)" stroke-width="1" opacity="1" d="M 601.5 544 L 602 546.5 L 601 546.5 L 601.5 544 Z " /><path fill="rgb(211,211,211)" stroke="rgb(211,211,211)" stroke-width="1" opacity="1" d="M 277.5 547 L 280 547.5 L 277.5 548 L 277.5 547 Z " /><path fill="rgb(211,211,211)" stroke="rgb(211,211,211)" stroke-width="1" opacity="1" d="M 472.5 548 L 473 550.5 L 472 550.5 L 472.5 548 Z " /><path fill="rgb(211,211,211)" stroke="rgb(211,211,211)" stroke-width="1" opacity="1" d="M 473.5 554 L 474 557.5 L 473 557.5 L 473.5 554 Z " /><path fill="rgb(211,211,211)" stroke="rgb(211,211,211)" stroke-width="1" opacity="1" d="M 278.5 555 L 279.5 557 L 278.5 555 Z " /><path fill="rgb(211,211,211)" stroke="rgb(211,211,211)" stroke-width="1" opacity="1" d="M 222.5 560 L 223.5 562 L 222.5 560 Z " /><path fill="rgb(211,211,211)" stroke="rgb(211,211,211)" stroke-width="1" opacity="1" d="M 281.5 560 L 282.5 562 L 281.5 560 Z " /><path fill="rgb(211,211,211)" stroke="rgb(211,211,211)" stroke-width="1" opacity="1" d="M 474.5 561 L 475 563.5 L 474 563.5 L 474.5 561 Z " /><path fill="rgb(211,211,211)" stroke="rgb(211,211,211)" stroke-width="1" opacity="1" d="M 225.5 565 L 226.5 567 L 225.5 565 Z " /><path fill="rgb(211,211,211)" stroke="rgb(211,211,211)" stroke-width="1" opacity="1" d="M 284.5 565 L 285.5 567 L 284.5 565 Z " /><path fill="rgb(211,211,211)" stroke="rgb(211,211,211)" stroke-width="1" opacity="1" d="M 228.5 570 L 229.5 572 L 228.5 570 Z " /><path fill="rgb(211,211,211)" stroke="rgb(211,211,211)" stroke-width="1" opacity="1" d="M 287.5 570 L 288.5 572 L 287.5 570 Z " /><path fill="rgb(211,211,211)" stroke="rgb(211,211,211)" stroke-width="1" opacity="1" d="M 476.5 571 L 477 573.5 L 476 573.5 L 476.5 571 Z " /><path fill="rgb(211,211,211)" stroke="rgb(211,211,211)" stroke-width="1" opacity="1" d="M 290.5 575 L 291.5 577 L 290.5 575 Z " /><path fill="rgb(211,211,211)" stroke="rgb(211,211,211)" stroke-width="1" opacity="1" d="M 477.5 576 L 478 578.5 L 477 578.5 L 477.5 576 Z " /><path fill="rgb(211,211,211)" stroke="rgb(211,211,211)" stroke-width="1" opacity="1" d="M 238.5 587 L 239.5 589 L 238.5 587 Z " /><path fill="rgb(211,211,211)" stroke="rgb(211,211,211)" stroke-width="1" opacity="1" d="M 298.5 588 L 299.5 590 L 298.5 588 Z " /><path fill="rgb(211,211,211)" stroke="rgb(211,211,211)" stroke-width="1" opacity="1" d="M 838.5 590 L 975.5 590 L 977 591.5 L 975.5 591 L 838.5 591 L 837.5 592 L 838.5 590 Z " /><path fill="rgb(211,211,211)" stroke="rgb(211,211,211)" stroke-width="1" opacity="1" d="M 241.5 592 L 242.5 594 L 241.5 592 Z " /><path fill="rgb(211,211,211)" stroke="rgb(211,211,211)" stroke-width="1" opacity="1" d="M 301.5 593 L 302.5 595 L 301.5 593 Z " /><path fill="rgb(211,211,211)" stroke="rgb(211,211,211)" stroke-width="1" opacity="1" d="M 244.5 597 L 245.5 599 L 244.5 597 Z " /><path fill="rgb(211,211,211)" stroke="rgb(211,211,211)" stroke-width="1" opacity="1" d="M 834.5 597 L 833.5 599 L 834.5 597 Z " /><path fill="rgb(211,211,211)" stroke="rgb(211,211,211)" stroke-width="1" opacity="1" d="M 304.5 598 L 305.5 600 L 304.5 598 Z " /><path fill="rgb(211,211,211)" stroke="rgb(211,211,211)" stroke-width="1" opacity="1" d="M 621.5 599 L 622.5 601 L 621.5 599 Z " /><path fill="rgb(211,211,211)" stroke="rgb(211,211,211)" stroke-width="1" opacity="1" d="M 623.5 602 L 624.5 604 L 623.5 602 Z " /><path fill="rgb(211,211,211)" stroke="rgb(211,211,211)" stroke-width="1" opacity="1" d="M 831.5 602 L 830.5 604 L 831.5 602 Z " /><path fill="rgb(211,211,211)" stroke="rgb(211,211,211)" stroke-width="1" opacity="1" d="M 307.5 603 L 308.5 605 L 307.5 603 Z " /><path fill="rgb(211,211,211)" stroke="rgb(211,211,211)" stroke-width="1" opacity="1" d="M 625.5 605 L 626.5 607 L 625.5 605 Z " /><path fill="rgb(211,211,211)" stroke="rgb(211,211,211)" stroke-width="1" opacity="1" d="M 310.5 608 L 311.5 610 L 310.5 608 Z " /><path fill="rgb(211,211,211)" stroke="rgb(211,211,211)" stroke-width="1" opacity="1" d="M 628.5 609 L 630.5 612 L 628.5 609 Z " /><path fill="rgb(211,211,211)" stroke="rgb(211,211,211)" stroke-width="1" opacity="1" d="M 825.5 611 L 824.5 613 L 825.5 611 Z " /><path fill="rgb(211,211,211)" stroke="rgb(211,211,211)" stroke-width="1" opacity="1" d="M 254.5 614 L 255.5 616 L 254.5 614 Z " /><path fill="rgb(211,211,211)" stroke="rgb(211,211,211)" stroke-width="1" opacity="1" d="M 632.5 614 L 636.5 619 L 632.5 614 Z " /><path fill="rgb(211,211,211)" stroke="rgb(211,211,211)" stroke-width="1" opacity="1" d="M 822.5 615 L 819.5 619 L 822.5 615 Z " /><path fill="rgb(211,211,211)" stroke="rgb(211,211,211)" stroke-width="1" opacity="1" d="M 257.5 619 L 258.5 621 L 257.5 619 Z " /><path fill="rgb(211,211,211)" stroke="rgb(211,211,211)" stroke-width="1" opacity="1" d="M 260.5 624 L 261.5 626 L 260.5 624 Z " /><path fill="rgb(211,211,211)" stroke="rgb(211,211,211)" stroke-width="1" opacity="1" d="M 321.5 626 L 322.5 628 L 321.5 626 Z " /><path fill="rgb(211,211,211)" stroke="rgb(211,211,211)" stroke-width="1" opacity="1" d="M 644.5 626 L 646.5 629 L 644.5 626 Z " /><path fill="rgb(211,211,211)" stroke="rgb(211,211,211)" stroke-width="1" opacity="1" d="M 809.5 628 L 806.5 632 L 809.5 628 Z " /><path fill="rgb(211,211,211)" stroke="rgb(211,211,211)" stroke-width="1" opacity="1" d="M 324.5 631 L 325.5 633 L 324.5 631 Z " /><path fill="rgb(211,211,211)" stroke="rgb(211,211,211)" stroke-width="1" opacity="1" d="M 650.5 631 L 652.5 634 L 650.5 631 Z " /><path fill="rgb(211,211,211)" stroke="rgb(211,211,211)" stroke-width="1" opacity="1" d="M 803.5 633 L 802.5 635 L 803.5 633 Z " /><path fill="rgb(211,211,211)" stroke="rgb(211,211,211)" stroke-width="1" opacity="1" d="M 654.5 634 L 655.5 636 L 654.5 634 Z " /><path fill="rgb(211,211,211)" stroke="rgb(211,211,211)" stroke-width="1" opacity="1" d="M 267.5 636 L 268.5 638 L 267.5 636 Z " /><path fill="rgb(211,211,211)" stroke="rgb(211,211,211)" stroke-width="1" opacity="1" d="M 327.5 636 L 328.5 638 L 327.5 636 Z " /><path fill="rgb(211,211,211)" stroke="rgb(211,211,211)" stroke-width="1" opacity="1" d="M 657.5 636 L 658.5 638 L 657.5 636 Z " /><path fill="rgb(211,211,211)" stroke="rgb(211,211,211)" stroke-width="1" opacity="1" d="M 799.5 636 L 798.5 638 L 799.5 636 Z " /><path fill="rgb(211,211,211)" stroke="rgb(211,211,211)" stroke-width="1" opacity="1" d="M 660.5 638 L 661.5 640 L 660.5 638 Z " /><path fill="rgb(211,211,211)" stroke="rgb(211,211,211)" stroke-width="1" opacity="1" d="M 796.5 638 L 795.5 640 L 796.5 638 Z " /><path fill="rgb(211,211,211)" stroke="rgb(211,211,211)" stroke-width="1" opacity="1" d="M 270.5 641 L 271.5 643 L 270.5 641 Z " /><path fill="rgb(211,211,211)" stroke="rgb(211,211,211)" stroke-width="1" opacity="1" d="M 330.5 641 L 331.5 643 L 330.5 641 Z " /><path fill="rgb(211,211,211)" stroke="rgb(211,211,211)" stroke-width="1" opacity="1" d="M 789.5 642 L 788.5 644 L 789.5 642 Z " /><path fill="rgb(211,211,211)" stroke="rgb(211,211,211)" stroke-width="1" opacity="1" d="M 503.5 645 L 504.5 647 L 503.5 645 Z " /><path fill="rgb(211,211,211)" stroke="rgb(211,211,211)" stroke-width="1" opacity="1" d="M 273.5 646 L 274.5 648 L 273.5 646 Z " /><path fill="rgb(211,211,211)" stroke="rgb(211,211,211)" stroke-width="1" opacity="1" d="M 953.5 649 L 952.5 651 L 953.5 649 Z " /><path fill="rgb(211,211,211)" stroke="rgb(211,211,211)" stroke-width="1" opacity="1" d="M 506.5 650 L 507.5 652 L 506.5 650 Z " /><path fill="rgb(211,211,211)" stroke="rgb(211,211,211)" stroke-width="1" opacity="1" d="M 950.5 654 L 949.5 656 L 950.5 654 Z " /><path fill="rgb(211,211,211)" stroke="rgb(211,211,211)" stroke-width="1" opacity="1" d="M 509.5 655 L 510.5 657 L 509.5 655 Z " /><path fill="rgb(211,211,211)" stroke="rgb(211,211,211)" stroke-width="1" opacity="1" d="M 704.5 655 L 708 655.5 L 704.5 656 L 704.5 655 Z " /><path fill="rgb(211,211,211)" stroke="rgb(211,211,211)" stroke-width="1" opacity="1" d="M 750.5 655 L 753 655.5 L 750.5 656 L 750.5 655 Z " /><path fill="rgb(211,211,211)" stroke="rgb(211,211,211)" stroke-width="1" opacity="1" d="M 712.5 656 L 717 656.5 L 712.5 657 L 712.5 656 Z " /><path fill="rgb(211,211,211)" stroke="rgb(211,211,211)" stroke-width="1" opacity="1" d="M 743.5 656 L 748 656.5 L 743.5 657 L 743.5 656 Z " /><path fill="rgb(211,211,211)" stroke="rgb(211,211,211)" stroke-width="1" opacity="1" d="M 727.5 657 L 734 657.5 L 727.5 658 L 727.5 657 Z " /><path fill="rgb(211,211,211)" stroke="rgb(211,211,211)" stroke-width="1" opacity="1" d="M 341.5 659 L 342.5 661 L 341.5 659 Z " /><path fill="rgb(211,211,211)" stroke="rgb(211,211,211)" stroke-width="1" opacity="1" d="M 947.5 659 L 946.5 661 L 947.5 659 Z " /><path fill="rgb(211,211,211)" stroke="rgb(211,211,211)" stroke-width="1" opacity="1" d="M 283.5 663 L 284.5 665 L 283.5 663 Z " /><path fill="rgb(211,211,211)" stroke="rgb(211,211,211)" stroke-width="1" opacity="1" d="M 344.5 664 L 345.5 666 L 344.5 664 Z " /><path fill="rgb(211,211,211)" stroke="rgb(211,211,211)" stroke-width="1" opacity="1" d="M 515.5 664 L 516.5 666 L 515.5 664 Z " /><path fill="rgb(211,211,211)" stroke="rgb(211,211,211)" stroke-width="1" opacity="1" d="M 944.5 664 L 943.5 666 L 944.5 664 Z " /><path fill="rgb(211,211,211)" stroke="rgb(211,211,211)" stroke-width="1" opacity="1" d="M 517.5 667 L 518.5 669 L 517.5 667 Z " /><path fill="rgb(211,211,211)" stroke="rgb(211,211,211)" stroke-width="1" opacity="1" d="M 942.5 667 L 941.5 669 L 942.5 667 Z " /><path fill="rgb(211,211,211)" stroke="rgb(211,211,211)" stroke-width="1" opacity="1" d="M 286.5 668 L 287.5 670 L 286.5 668 Z " /><path fill="rgb(211,211,211)" stroke="rgb(211,211,211)" stroke-width="1" opacity="1" d="M 347.5 669 L 348.5 671 L 347.5 669 Z " /><path fill="rgb(211,211,211)" stroke="rgb(211,211,211)" stroke-width="1" opacity="1" d="M 519.5 670 L 520.5 672 L 519.5 670 Z " /><path fill="rgb(211,211,211)" stroke="rgb(211,211,211)" stroke-width="1" opacity="1" d="M 939.5 671 L 938.5 673 L 939.5 671 Z " /><path fill="rgb(211,211,211)" stroke="rgb(211,211,211)" stroke-width="1" opacity="1" d="M 289.5 673 L 290.5 675 L 289.5 673 Z " /><path fill="rgb(211,211,211)" stroke="rgb(211,211,211)" stroke-width="1" opacity="1" d="M 350.5 674 L 351.5 676 L 350.5 674 Z " /><path fill="rgb(211,211,211)" stroke="rgb(211,211,211)" stroke-width="1" opacity="1" d="M 522.5 674 L 524.5 677 L 522.5 674 Z " /><path fill="rgb(211,211,211)" stroke="rgb(211,211,211)" stroke-width="1" opacity="1" d="M 936.5 675 L 935.5 677 L 936.5 675 Z " /><path fill="rgb(211,211,211)" stroke="rgb(211,211,211)" stroke-width="1" opacity="1" d="M 353.5 679 L 354.5 681 L 353.5 679 Z " /><path fill="rgb(211,211,211)" stroke="rgb(211,211,211)" stroke-width="1" opacity="1" d="M 526.5 679 L 528.5 682 L 526.5 679 Z " /><path fill="rgb(211,211,211)" stroke="rgb(211,211,211)" stroke-width="1" opacity="1" d="M 933.5 679 L 932.5 681 L 933.5 679 Z " /><path fill="rgb(211,211,211)" stroke="rgb(211,211,211)" stroke-width="1" opacity="1" d="M 930.5 683 L 927.5 687 L 930.5 683 Z " /><path fill="rgb(211,211,211)" stroke="rgb(211,211,211)" stroke-width="1" opacity="1" d="M 530.5 684 L 535.5 690 L 530.5 684 Z " /><path fill="rgb(211,211,211)" stroke="rgb(211,211,211)" stroke-width="1" opacity="1" d="M 299.5 690 L 300.5 692 L 299.5 690 Z " /><path fill="rgb(211,211,211)" stroke="rgb(211,211,211)" stroke-width="1" opacity="1" d="M 923.5 691 L 919.5 696 L 923.5 691 Z " /><path fill="rgb(211,211,211)" stroke="rgb(211,211,211)" stroke-width="1" opacity="1" d="M 361.5 692 L 362.5 694 L 361.5 692 Z " /><path fill="rgb(211,211,211)" stroke="rgb(211,211,211)" stroke-width="1" opacity="1" d="M 302.5 695 L 303.5 697 L 302.5 695 Z " /><path fill="rgb(211,211,211)" stroke="rgb(211,211,211)" stroke-width="1" opacity="1" d="M 541.5 696 L 544.5 700 L 541.5 696 Z " /><path fill="rgb(211,211,211)" stroke="rgb(211,211,211)" stroke-width="1" opacity="1" d="M 364.5 697 L 365.5 699 L 364.5 697 Z " /><path fill="rgb(211,211,211)" stroke="rgb(211,211,211)" stroke-width="1" opacity="1" d="M 915.5 699 L 905.5 710 L 915.5 699 Z " /><path fill="rgb(211,211,211)" stroke="rgb(211,211,211)" stroke-width="1" opacity="1" d="M 305.5 700 L 306.5 702 L 305.5 700 Z " /><path fill="rgb(211,211,211)" stroke="rgb(211,211,211)" stroke-width="1" opacity="1" d="M 367.5 702 L 368.5 704 L 367.5 702 Z " /><path fill="rgb(211,211,211)" stroke="rgb(211,211,211)" stroke-width="1" opacity="1" d="M 552.5 706 L 556.5 711 L 552.5 706 Z " /><path fill="rgb(211,211,211)" stroke="rgb(211,211,211)" stroke-width="1" opacity="1" d="M 370.5 707 L 371.5 709 L 370.5 707 Z " /><path fill="rgb(211,211,211)" stroke="rgb(211,211,211)" stroke-width="1" opacity="1" d="M 312.5 712 L 313.5 714 L 312.5 712 Z " /><path fill="rgb(211,211,211)" stroke="rgb(211,211,211)" stroke-width="1" opacity="1" d="M 373.5 712 L 374.5 714 L 373.5 712 Z " /><path fill="rgb(211,211,211)" stroke="rgb(211,211,211)" stroke-width="1" opacity="1" d="M 559.5 712 L 561.5 715 L 559.5 712 Z " /><path fill="rgb(211,211,211)" stroke="rgb(211,211,211)" stroke-width="1" opacity="1" d="M 901.5 712 L 899.5 715 L 901.5 712 Z " /><path fill="rgb(211,211,211)" stroke="rgb(211,211,211)" stroke-width="1" opacity="1" d="M 896.5 716 L 894.5 719 L 896.5 716 Z " /><path fill="rgb(211,211,211)" stroke="rgb(211,211,211)" stroke-width="1" opacity="1" d="M 315.5 717 L 316.5 719 L 315.5 717 Z " /><path fill="rgb(211,211,211)" stroke="rgb(211,211,211)" stroke-width="1" opacity="1" d="M 565.5 717 L 567.5 720 L 565.5 717 Z " /><path fill="rgb(211,211,211)" stroke="rgb(211,211,211)" stroke-width="1" opacity="1" d="M 890.5 721 L 889.5 723 L 890.5 721 Z " /><path fill="rgb(211,211,211)" stroke="rgb(211,211,211)" stroke-width="1" opacity="1" d="M 318.5 722 L 319.5 724 L 318.5 722 Z " /><path fill="rgb(211,211,211)" stroke="rgb(211,211,211)" stroke-width="1" opacity="1" d="M 573.5 723 L 574.5 725 L 573.5 723 Z " /><path fill="rgb(211,211,211)" stroke="rgb(211,211,211)" stroke-width="1" opacity="1" d="M 886.5 724 L 885.5 726 L 886.5 724 Z " /><path fill="rgb(211,211,211)" stroke="rgb(211,211,211)" stroke-width="1" opacity="1" d="M 381.5 725 L 382.5 727 L 381.5 725 Z " /><path fill="rgb(211,211,211)" stroke="rgb(211,211,211)" stroke-width="1" opacity="1" d="M 576.5 725 L 577.5 727 L 576.5 725 Z " /><path fill="rgb(211,211,211)" stroke="rgb(211,211,211)" stroke-width="1" opacity="1" d="M 883.5 726 L 882.5 728 L 883.5 726 Z " /><path fill="rgb(211,211,211)" stroke="rgb(211,211,211)" stroke-width="1" opacity="1" d="M 880.5 728 L 879.5 730 L 880.5 728 Z " /><path fill="rgb(211,211,211)" stroke="rgb(211,211,211)" stroke-width="1" opacity="1" d="M 384.5 730 L 385.5 732 L 384.5 730 Z " /><path fill="rgb(211,211,211)" stroke="rgb(211,211,211)" stroke-width="1" opacity="1" d="M 877.5 730 L 876.5 732 L 877.5 730 Z " /><path fill="rgb(211,211,211)" stroke="rgb(211,211,211)" stroke-width="1" opacity="1" d="M 585.5 731 L 586.5 733 L 585.5 731 Z " /><path fill="rgb(211,211,211)" stroke="rgb(211,211,211)" stroke-width="1" opacity="1" d="M 874.5 732 L 873.5 734 L 874.5 732 Z " /><path fill="rgb(211,211,211)" stroke="rgb(211,211,211)" stroke-width="1" opacity="1" d="M 590.5 734 L 591.5 736 L 590.5 734 Z " /><path fill="rgb(211,211,211)" stroke="rgb(211,211,211)" stroke-width="1" opacity="1" d="M 871.5 734 L 870.5 736 L 871.5 734 Z " /><path fill="rgb(211,211,211)" stroke="rgb(211,211,211)" stroke-width="1" opacity="1" d="M 387.5 735 L 388.5 737 L 387.5 735 Z " /><path fill="rgb(211,211,211)" stroke="rgb(211,211,211)" stroke-width="1" opacity="1" d="M 595.5 737 L 596.5 739 L 595.5 737 Z " /><path fill="rgb(211,211,211)" stroke="rgb(211,211,211)" stroke-width="1" opacity="1" d="M 328.5 739 L 329.5 741 L 328.5 739 Z " /><path fill="rgb(211,211,211)" stroke="rgb(211,211,211)" stroke-width="1" opacity="1" d="M 390.5 740 L 391.5 742 L 390.5 740 Z " /><path fill="rgb(211,211,211)" stroke="rgb(211,211,211)" stroke-width="1" opacity="1" d="M 860.5 740 L 859.5 742 L 860.5 740 Z " /><path fill="rgb(211,211,211)" stroke="rgb(211,211,211)" stroke-width="1" opacity="1" d="M 331.5 744 L 332.5 746 L 331.5 744 Z " /><path fill="rgb(211,211,211)" stroke="rgb(211,211,211)" stroke-width="1" opacity="1" d="M 393.5 745 L 394.5 747 L 393.5 745 Z " /><path fill="rgb(211,211,211)" stroke="rgb(211,211,211)" stroke-width="1" opacity="1" d="M 334.5 749 L 335.5 751 L 334.5 749 Z " /><path fill="rgb(211,211,211)" stroke="rgb(211,211,211)" stroke-width="1" opacity="1" d="M 404.5 763 L 405.5 765 L 404.5 763 Z " /><path fill="rgb(211,211,211)" stroke="rgb(211,211,211)" stroke-width="1" opacity="1" d="M 660.5 763 L 663 763.5 L 660.5 764 L 660.5 763 Z " /><path fill="rgb(211,211,211)" stroke="rgb(211,211,211)" stroke-width="1" opacity="1" d="M 790.5 765 L 793 765.5 L 790.5 766 L 790.5 765 Z " /><path fill="rgb(211,211,211)" stroke="rgb(211,211,211)" stroke-width="1" opacity="1" d="M 344.5 766 L 345.5 768 L 344.5 766 Z " /><path fill="rgb(211,211,211)" stroke="rgb(211,211,211)" stroke-width="1" opacity="1" d="M 674.5 766 L 677 766.5 L 674.5 767 L 674.5 766 Z " /><path fill="rgb(211,211,211)" stroke="rgb(211,211,211)" stroke-width="1" opacity="1" d="M 785.5 766 L 788 766.5 L 785.5 767 L 785.5 766 Z " /><path fill="rgb(211,211,211)" stroke="rgb(211,211,211)" stroke-width="1" opacity="1" d="M 680.5 767 L 683 767.5 L 680.5 768 L 680.5 767 Z " /><path fill="rgb(211,211,211)" stroke="rgb(211,211,211)" stroke-width="1" opacity="1" d="M 779.5 767 L 782 767.5 L 779.5 768 L 779.5 767 Z " /><path fill="rgb(211,211,211)" stroke="rgb(211,211,211)" stroke-width="1" opacity="1" d="M 687.5 768 L 690 768.5 L 687.5 769 L 687.5 768 Z " /><path fill="rgb(211,211,211)" stroke="rgb(211,211,211)" stroke-width="1" opacity="1" d="M 773.5 768 L 776 768.5 L 773.5 769 L 773.5 768 Z " /><path fill="rgb(211,211,211)" stroke="rgb(211,211,211)" stroke-width="1" opacity="1" d="M 695.5 769 L 700 769.5 L 695.5 770 L 695.5 769 Z " /><path fill="rgb(211,211,211)" stroke="rgb(211,211,211)" stroke-width="1" opacity="1" d="M 763.5 769 L 769 769.5 L 763.5 770 L 763.5 769 Z " /><path fill="rgb(211,211,211)" stroke="rgb(211,211,211)" stroke-width="1" opacity="1" d="M 706.5 770 L 711 770.5 L 706.5 771 L 706.5 770 Z " /><path fill="rgb(211,211,211)" stroke="rgb(211,211,211)" stroke-width="1" opacity="1" d="M 753.5 770 L 758 770.5 L 753.5 771 L 753.5 770 Z " /><path fill="rgb(211,211,211)" stroke="rgb(211,211,211)" stroke-width="1" opacity="1" d="M 726.5 771 L 735 771.5 L 726.5 772 L 726.5 771 Z " /><path fill="rgb(255,255,255)" stroke="rgb(255,255,255)" stroke-width="1" opacity="1" d="M 708.5 244 L 753.5 244 L 754.5 245 L 772.5 246 L 803.5 252 L 834.5 262 Q 887.6 283.9 923 323.5 Q 960.3 363.9 976 425 L 838.5 425 L 837 423.5 Q 827.2 400.8 809.5 386 Q 793.1 371.9 770.5 364 L 748.5 359 L 722.5 358 L 721.5 359 L 702.5 360 L 673.5 369 Q 653 379 638 394.5 Q 616.7 416.2 606 448.5 L 602 463.5 L 600 481.5 L 599 482.5 L 599 492.5 L 598 493.5 L 598 523.5 L 599 524.5 L 600 541.5 L 603 556.5 L 611 580.5 Q 623.8 609.7 646.5 629 Q 660.6 641.4 679.5 649 L 704.5 656 L 733.5 658 L 734.5 657 L 747.5 657 L 762.5 654 L 784.5 646 Q 807.6 634.6 823 615.5 L 838.5 591 L 975.5 591 L 976 592.5 Q 958.2 657.7 916.5 699 Q 895.6 720.1 869.5 736 L 829.5 755 L 795.5 765 L 790.5 765 L 772.5 769 L 763.5 769 L 752.5 771 L 711.5 771 L 710.5 770 L 683.5 768 L 658.5 763 L 635.5 756 L 615.5 748 Q 568.4 726.6 536 690.5 Q 498.9 650.6 481 591.5 L 475 566.5 L 474 554.5 L 472 547.5 L 471 523.5 L 470 522.5 L 470 491.5 L 471 490.5 L 472 468.5 L 478 434.5 L 488 402.5 L 494 388.5 Q 515.7 341.7 551.5 309 Q 582.5 280.5 624.5 263 L 657.5 252 L 688.5 246 L 707.5 245 L 708.5 244 Z " /><path fill="rgb(255,255,255)" stroke="rgb(255,255,255)" stroke-width="1" opacity="1" d="M 71 252 L 247.5 252 L 248.5 253 L 258.5 253 L 259.5 254 L 273.5 255 L 303.5 262 L 334.5 276 Q 354.2 288.3 369 305.5 Q 387 326.5 396 356.5 L 401 384.5 L 401 417.5 L 400 418.5 L 400 426.5 L 398 437.5 L 389 465.5 Q 377.7 490.2 359.5 508 Q 340.4 525.9 314.5 537 L 290.5 545 L 274 548.5 L 407 767.5 L 346.5 768 L 217.5 552 L 122 552 L 122 767.5 L 121.5 768 L 71 768 L 71 252 Z M 122 295 L 122 510 L 245 510 L 246 509 L 254 509 L 278 504 L 289 500 Q 302 494 313 486 Q 331 471 341 448 L 346 432 L 348 421 L 348 413 L 349 412 Q 351 358 327 331 Q 317 318 303 310 L 284 302 L 269 298 L 263 298 L 256 296 L 247 296 L 246 295 L 122 295 Z " /></svg>